<svg version="1.1" xmlns="http://www.w3.org/2000/svg" style="display: block;" viewBox="0 0 2048 2048" width="1024" height="1024" preserveAspectRatio="none">
<path transform="translate(0,0)" fill="rgb(22,25,27)" d="M 0 0 L 2048 0 L 2048 2048 L 0 2048 L 0 0 z"/>
<path transform="translate(0,0)" fill="rgb(254,63,61)" d="M 551.277 466.098 L 725.04 466.121 C 823.32 466.09 907.229 457.376 991.802 518.434 C 944.351 566.312 924.652 604.065 905.005 667.73 C 899.956 658.283 895.468 651.514 887.657 643.958 C 878.279 634.754 866.759 628.028 854.133 624.386 C 830.805 617.575 752.6 618.89 723.902 619.443 L 724.002 981.835 C 743.204 982.125 762.845 981.935 782.096 981.955 C 819.678 981.993 857.951 985.455 888.149 958.29 C 912.797 936.119 919.63 906.775 921.387 874.997 C 955.498 949.014 987.525 973.922 1043.27 1029.95 C 1020.33 1060.21 1008.76 1071.84 977.537 1093.71 C 895.633 1144.21 815.886 1135.22 723.942 1135.29 L 723.882 1576.35 L 551.179 1576.32 L 551.277 466.098 z"/>
<path transform="translate(0,0)" fill="rgb(254,63,61)" d="M 1203.58 465.817 C 1207.51 465.76 1212.02 465.258 1215.5 466.791 C 1216.7 475.995 1215.95 502.746 1215.95 513.604 L 1216.02 612.141 C 1177.99 612.87 1144.77 627.03 1118.3 654.592 C 1093.35 680.789 1079.91 715.864 1080.95 752.022 C 1082.36 818.802 1131.12 855.498 1174.47 898.919 L 1313.47 1038.09 L 1357.42 1082.55 C 1386.69 1111.87 1409.64 1133.04 1431.12 1169.47 C 1463 1222.67 1476.31 1284.94 1468.97 1346.53 C 1461.8 1405.45 1435.62 1460.42 1394.41 1503.14 C 1346.74 1553.19 1280.96 1581.99 1211.84 1583.06 C 1210.11 1583.09 1208.37 1583.1 1206.63 1583.1 C 1207.77 1536.68 1205.95 1489.73 1206.72 1443.29 C 1206.77 1440.32 1206.95 1440.72 1208.88 1439.08 C 1211.9 1439.1 1214.92 1439.02 1217.93 1438.83 C 1306.85 1433.22 1356.4 1327.61 1314.77 1252.71 C 1298.1 1222.71 1260.35 1188.79 1235.31 1164.02 L 1098.7 1028.34 C 1018.69 948.651 943.46 889.633 936.054 766.141 C 931.251 690.674 956.844 616.422 1007.13 559.942 C 1057.18 503.279 1128.06 469.319 1203.58 465.817 z"/>
<path transform="translate(0,0)" fill="rgb(154,0,0)" d="M 1203.58 465.817 C 1215.52 463.884 1231.29 465.51 1243.33 466.775 C 1375.23 480.634 1473.62 579.357 1493.9 709.178 C 1504.54 779.875 1486.77 851.909 1444.46 909.544 C 1421.09 941.589 1375.07 979.271 1344.88 1008.71 C 1310.56 975.296 1276.6 941.522 1242.99 907.395 L 1288.44 865.326 C 1325.1 831.625 1350.07 806.53 1351.77 752.944 C 1353 716.534 1339.53 681.161 1314.41 654.778 C 1287.16 626 1254.82 613.809 1216.02 612.141 L 1215.95 513.604 C 1215.95 502.746 1216.7 475.995 1215.5 466.791 C 1212.02 465.258 1207.51 465.76 1203.58 465.817 z"/>
<path transform="translate(0,0)" fill="rgb(154,0,0)" d="M 1076.71 1066.31 C 1110.51 1098.56 1144.12 1133.87 1177.94 1166.76 C 1175.63 1168.57 1173.95 1169.96 1171.85 1172.05 C 1129.55 1213.61 1083.37 1246.8 1083.43 1312.54 C 1083.48 1385.14 1137.18 1438.45 1208.88 1439.08 C 1206.95 1440.72 1206.77 1440.32 1206.72 1443.29 C 1205.95 1489.73 1207.77 1536.68 1206.63 1583.1 C 1204.25 1583.18 1201.88 1583.19 1199.5 1583.14 C 1131.39 1581.29 1066.74 1552.7 1019.55 1503.55 C 968.911 1450.03 940.098 1379.81 942.046 1306.04 C 944.863 1199.4 1003.61 1134.6 1076.71 1066.31 z"/>
</svg>